<svg xmlns="http://www.w3.org/2000/svg" xmlns:xlink="http://www.w3.org/1999/xlink"><defs><style>
    .sprite-symbol-usage {display: none;}
    .sprite-symbol-usage:target {display: inline;}
  </style><symbol viewBox="0 0 125 40" id="spotify">
<g id="spotify_bg" display="none">
	<rect display="inline" fill="#FFFFFF" width="125" height="40" />
</g>
<g id="spotify_icons">
	<g>
		<g>
			<path fill="#FFFFFF" d="M27.336,28.285L27.336,28.285c0.338-0.549,0.162-1.267-0.387-1.605c-4.938-3.018-11.06-3.72-18.197-2.088
				c-0.629,0.143-1.021,0.769-0.879,1.398c0.144,0.628,0.771,1.023,1.399,0.878c6.521-1.489,12.06-0.882,16.459,1.807
				C26.281,29.011,27,28.838,27.336,28.285z" />
			<path fill="#FFFFFF" d="M32.227,17.26c0.493-0.831,0.219-1.907-0.612-2.401c-6.952-4.127-17.955-4.516-24.572-2.506
				c-0.926,0.281-1.447,1.26-1.168,2.186c0.28,0.926,1.26,1.448,2.185,1.168c5.767-1.75,15.727-1.42,21.767,2.166
				C30.657,18.367,31.735,18.093,32.227,17.26z" />
			<path fill="#FFFFFF" d="M29.156,21.178c-5.784-3.554-14.246-4.554-21.049-2.489c-0.772,0.235-1.208,1.049-0.977,1.822
				c0.234,0.77,1.05,1.206,1.822,0.973c5.956-1.808,13.642-0.911,18.676,2.183c0.687,0.422,1.435,0.207,2.016-0.481v0.001
				C30.225,22.499,29.843,21.6,29.156,21.178z" />
			<path fill="#24CF5F" d="M18.604,1.266L18.604,1.266C8.145,1.265-0.061,9.653-0.061,19.999c0,10.348,8.423,18.736,18.77,18.736
				c10.348,0,18.682-8.387,18.682-18.736C37.391,9.654,29.063,1.266,18.604,1.266z M9.272,26.868
				c-0.628,0.145-1.255-0.249-1.399-0.878c-0.142-0.628,0.25-1.255,0.879-1.398c7.137-1.632,13.258-0.93,18.197,2.088
				c0.55,0.338,0.726,1.056,0.387,1.606l0.001-0.001c-0.336,0.552-1.056,0.725-1.605,0.389
				C21.332,25.985,15.793,25.379,9.272,26.868z M29.644,23.186L29.644,23.186c-0.581,0.687-1.33,0.902-2.017,0.48
				c-5.034-3.094-12.716-3.991-18.672-2.183c-0.772,0.233-1.591-0.202-1.825-0.973c-0.232-0.773,0.202-1.587,0.974-1.822
				c6.804-2.064,15.269-1.065,21.053,2.489C29.843,21.6,30.225,22.499,29.644,23.186z M29.827,17.873
				c-6.039-3.586-16-3.916-21.767-2.166c-0.925,0.28-1.905-0.242-2.185-1.168c-0.28-0.926,0.242-1.905,1.168-2.186
				c6.617-2.01,17.62-1.621,24.572,2.506c0.832,0.494,1.105,1.57,0.612,2.401C31.735,18.093,30.657,18.367,29.827,17.873z" />
		</g>
		<path fill="#24CF5F" d="M51.101,18.561c-3.233-0.772-3.81-1.313-3.81-2.451c0-1.075,1.013-1.798,2.518-1.798
			c1.458,0,2.904,0.55,4.421,1.68c0.046,0.034,0.104,0.048,0.16,0.039c0.057-0.009,0.105-0.04,0.14-0.087l1.579-2.226
			c0.064-0.092,0.048-0.219-0.04-0.288c-1.805-1.448-3.837-2.153-6.212-2.153c-3.493,0-5.933,2.097-5.933,5.095
			c0,3.216,2.105,4.355,5.742,5.234c3.096,0.713,3.617,1.311,3.617,2.378c0,1.183-1.057,1.919-2.756,1.919
			c-1.889,0-3.428-0.636-5.15-2.128c-0.043-0.037-0.101-0.054-0.156-0.051c-0.056,0.005-0.109,0.031-0.145,0.075l-1.77,2.108
			c-0.074,0.087-0.064,0.218,0.02,0.293c2.005,1.79,4.47,2.735,7.13,2.735c3.764,0,6.196-2.057,6.196-5.239
			c0.006-2.687-1.602-4.175-5.541-5.133L51.101,18.561z" />
		<path fill="#24CF5F" d="M65.165,15.37c-1.632,0-2.97,0.642-4.072,1.96v-1.482c0-0.117-0.096-0.212-0.213-0.212h-2.896
			c-0.117,0-0.211,0.095-0.211,0.212v16.466c0,0.117,0.094,0.212,0.211,0.212h2.896c0.117,0,0.213-0.096,0.213-0.212v-5.197
			c1.103,1.238,2.442,1.843,4.072,1.843c3.031,0,6.1-2.334,6.1-6.794c0.005-4.461-3.065-6.796-6.097-6.796H65.165z M67.896,22.166
			c0,2.271-1.4,3.857-3.404,3.857c-1.98,0-3.473-1.658-3.473-3.857c0-2.199,1.493-3.856,3.473-3.856
			C66.465,18.309,67.896,19.931,67.896,22.166L67.896,22.166z" />
		<path fill="#24CF5F" d="M79.129,15.37c-3.904,0-6.962,3.006-6.962,6.844c0,3.796,3.037,6.771,6.915,6.771
			c3.917,0,6.985-2.996,6.985-6.819c0-3.811-3.047-6.795-6.937-6.795V15.37z M79.129,26.044c-2.076,0-3.642-1.668-3.642-3.88
			c0-2.222,1.512-3.833,3.594-3.833c2.09,0,3.666,1.668,3.666,3.882C82.747,24.434,81.226,26.044,79.129,26.044L79.129,26.044z" />
		<path fill="#24CF5F" d="M94.403,15.635h-3.188v-3.259c0-0.117-0.095-0.212-0.211-0.212h-2.896c-0.118,0-0.213,0.095-0.213,0.212
			v3.259h-1.392c-0.117,0-0.211,0.095-0.211,0.212v2.489c0,0.117,0.094,0.212,0.211,0.212h1.392v6.442
			c0,2.603,1.296,3.922,3.851,3.922c1.039,0,1.9-0.215,2.713-0.675c0.066-0.037,0.107-0.108,0.107-0.184v-2.37
			c0-0.073-0.037-0.143-0.1-0.181c-0.063-0.04-0.143-0.042-0.207-0.01c-0.557,0.281-1.097,0.41-1.7,0.41
			c-0.93,0-1.344-0.422-1.344-1.367V18.55h3.188c0.116,0,0.211-0.095,0.211-0.212v-2.489c0.005-0.118-0.089-0.213-0.208-0.213
			L94.403,15.635z" />
		<path fill="#24CF5F" d="M105.507,15.648v-0.4c0-1.177,0.452-1.702,1.465-1.702c0.604,0,1.089,0.12,1.632,0.3
			c0.067,0.021,0.137,0.011,0.191-0.029c0.056-0.04,0.087-0.104,0.087-0.172v-2.44c0-0.094-0.061-0.176-0.15-0.204
			c-0.573-0.17-1.308-0.346-2.407-0.346c-2.675,0-4.089,1.506-4.089,4.355v0.613h-1.392c-0.116,0-0.212,0.096-0.212,0.213v2.502
			c0,0.117,0.096,0.212,0.212,0.212h1.392v9.936c0,0.117,0.094,0.212,0.211,0.212h2.896c0.117,0,0.213-0.095,0.213-0.212V18.55
			h2.704l4.143,9.933c-0.471,1.044-0.932,1.251-1.563,1.251c-0.511,0-1.049-0.152-1.598-0.452c-0.053-0.029-0.113-0.034-0.169-0.016
			c-0.056,0.019-0.102,0.06-0.125,0.114l-0.982,2.153c-0.047,0.102-0.008,0.221,0.091,0.274c1.024,0.555,1.95,0.792,3.094,0.792
			c2.138,0,3.319-0.996,4.362-3.676l5.025-12.984c0.024-0.066,0.018-0.139-0.023-0.197c-0.04-0.058-0.104-0.092-0.173-0.092h-3.017
			c-0.09,0-0.17,0.057-0.2,0.142l-3.089,8.822l-3.383-8.829c-0.031-0.082-0.112-0.136-0.198-0.136h-4.949V15.648z" />
		<path fill="#24CF5F" d="M99.07,15.635h-2.896c-0.117,0-0.213,0.095-0.213,0.212v12.637c0,0.117,0.096,0.212,0.213,0.212h2.896
			c0.116,0,0.212-0.095,0.212-0.212V15.849C99.282,15.732,99.188,15.636,99.07,15.635L99.07,15.635z" />
		<path fill="#24CF5F" d="M97.637,9.881c-1.148,0-2.078,0.929-2.078,2.077c0,1.148,0.931,2.078,2.078,2.078s2.077-0.93,2.077-2.078
			C99.714,10.81,98.785,9.881,97.637,9.881L97.637,9.881z" />
		<path fill="#24CF5F" d="M123.012,19.698c-1.147,0-2.038-0.921-2.038-2.039c0-1.118,0.904-2.049,2.049-2.049
			c1.147,0,2.038,0.921,2.038,2.038C125.061,18.766,124.157,19.698,123.012,19.698L123.012,19.698z M123.023,15.813
			c-1.045,0-1.834,0.83-1.834,1.846c0,1.016,0.783,1.835,1.823,1.835c1.043,0,1.835-0.829,1.835-1.846
			C124.848,16.632,124.061,15.813,123.023,15.813L123.023,15.813z M123.475,17.858l0.576,0.807h-0.486l-0.52-0.74h-0.446v0.74
			h-0.406v-2.139h0.953c0.497,0,0.825,0.254,0.825,0.682c0.001,0.351-0.202,0.565-0.495,0.65H123.475z M123.131,16.893h-0.532v0.677
			h0.532c0.265,0,0.422-0.13,0.422-0.339C123.552,17.01,123.394,16.893,123.131,16.893L123.131,16.893z" />
	</g>
</g>
</symbol><symbol viewBox="0 0 473.677 473.677" id="us">
<g>
	<rect x="1.068" y="258.99" style="fill:#C42126;" width="471.56" height="0.007" />
	<rect x="25.629" y="129.7" style="fill:#C42126;" width="422.42" height="0.007" />
	<rect x="8.831" y="172.79" style="fill:#C42126;" width="456" height="0.007" />
	<polygon style="fill:#C42126;" points="101.793,431.36 371.888,431.36 371.902,431.345 101.778,431.345  " />
	<path style="fill:#C42126;" d="M236.837,0c-4.652,0-9.267,0.168-13.848,0.43h27.699C246.103,0.168,241.489,0,236.837,0z" />
	<rect x="0.978" y="215.89" style="fill:#C42126;" width="471.71" height="0.007" />
</g>
<path style="fill:#E7E7E7;" d="M306.838,86.609H419.93c-13.433-16.353-29.045-30.829-46.341-43.084h-84.922  C295.694,55.888,301.737,70.476,306.838,86.609z" />
<path style="fill:#DC3027;" d="M288.667,43.525h84.922C338.482,18.646,296.333,3.066,250.688,0.43h-7.292  C264.88,3.134,274.748,19.034,288.667,43.525z" />
<path style="fill:#E7E7E7;" d="M464.846,172.794c-4.211-15.018-9.858-29.427-16.798-43.084H317.94  c2.636,13.833,4.716,28.282,6.256,43.084H464.846z" />
<path style="fill:#DC3027;" d="M310.622,129.703h137.422c-7.831-15.403-17.239-29.857-28.114-43.091H299.886  C304.119,100.011,307.713,114.465,310.622,129.703z" />
<path style="fill:#E7E7E7;" d="M329.178,258.98h143.431c0.681-7.288,1.066-14.674,1.066-22.138c0-7.064-0.37-14.038-0.976-20.949  H329.212C329.679,230.223,329.671,244.658,329.178,258.98z" />
<path style="fill:#DC3027;" d="M472.703,215.886c-1.298-14.798-3.964-29.195-7.857-43.084H318.154  c1.473,14.109,2.446,28.544,2.921,43.084H472.703z" />
<path style="fill:#E7E7E7;" d="M315.465,345.166h131.962c7.038-13.642,12.774-28.062,17.075-43.091H321.845  C320.274,316.899,318.142,331.345,315.465,345.166z" />
<path style="fill:#DC3027;" d="M464.506,302.072c3.975-13.885,6.735-28.282,8.107-43.084H324.709  c-0.505,14.551-1.507,28.982-3.01,43.084L464.506,302.072L464.506,302.072z" />
<path style="fill:#E7E7E7;" d="M371.902,431.345c17.546-12.206,33.379-26.697,47.025-43.084H307.806  c-5.194,16.2-11.361,30.765-18.515,43.084L371.902,431.345L371.902,431.345z" />
<g>
	<path style="fill:#DC3027;" d="M303.625,388.258h115.302c11.002-13.219,20.553-27.673,28.499-43.091h-132.93   C311.546,360.416,307.915,374.877,303.625,388.258z" />
	<path style="fill:#DC3027;" d="M228.254,473.509c-0.479-0.015-0.957-0.037-1.436-0.052   C227.297,473.471,227.776,473.494,228.254,473.509z" />
	<path style="fill:#DC3027;" d="M236.837,473.677c50.211,0,96.735-15.673,135.051-42.317h-85.715   C270.96,457.57,260.923,473.677,236.837,473.677z" />
</g>
<path style="fill:#C42126;" d="M236.837,473.677c-2.876,0-5.733-0.067-8.582-0.168C231.134,473.606,233.994,473.677,236.837,473.677  z" />
<path style="fill:#F3F4F5;" d="M296.509,43.525H100.092C82.793,55.78,67.184,70.255,53.747,86.609h260.929  C309.575,70.476,303.536,55.888,296.509,43.525z" />
<path style="fill:#E73625;" d="M100.092,43.525h196.417C282.587,19.034,264.88,3.134,243.396,0.43h-20.407  C177.344,3.066,135.195,18.646,100.092,43.525z" />
<path style="fill:#F3F4F5;" d="M8.835,172.794h322.83c-1.541-14.805-3.62-29.251-6.256-43.084H25.633  C18.692,143.368,13.046,157.776,8.835,172.794z" />
<path style="fill:#E73625;" d="M53.747,86.609C42.88,99.843,33.464,114.296,25.637,129.7h299.772  c-2.906-15.235-6.499-29.688-10.733-43.091C314.676,86.609,53.747,86.609,53.747,86.609z" />
<path style="fill:#F3F4F5;" d="M0.002,236.842c0,7.464,0.389,14.85,1.066,22.138h333.491c0.494-14.323,0.501-28.754,0.034-43.084  H0.978C0.372,222.804,0.002,229.778,0.002,236.842z" />
<path style="fill:#E73625;" d="M0.978,215.886h333.611c-0.475-14.543-1.451-28.974-2.921-43.084H8.831  C4.938,186.694,2.272,201.088,0.978,215.886z" />
<path style="fill:#F3F4F5;" d="M331.549,302.072H9.175c4.301,15.033,10.041,29.449,17.075,43.091h298.919  C327.847,331.345,329.974,316.899,331.549,302.072z" />
<path style="fill:#E73625;" d="M9.175,302.072h322.374c1.5-14.102,2.505-28.537,3.01-43.084H1.068  C2.44,273.793,5.204,288.187,9.175,302.072z" />
<path style="fill:#F3F4F5;" d="M101.778,431.345h194.009c7.154-12.322,13.324-26.884,18.515-43.084H54.753  C68.399,404.648,84.228,419.139,101.778,431.345z" />
<g>
	<path style="fill:#E73625;" d="M26.254,345.166c7.947,15.418,17.497,29.872,28.499,43.091h259.549   c4.286-13.38,7.917-27.841,10.867-43.091H26.254z" />
	<path style="fill:#E73625;" d="M226.818,473.456c0.479,0.015,0.957,0.037,1.436,0.052c2.85,0.101,5.707,0.168,8.582,0.168   c24.087,0,43.727-16.106,58.943-42.317H101.793C137.54,456.221,180.448,471.523,226.818,473.456z" />
</g>
<path style="fill:#283991;" d="M231.941,0.123C110.574,2.592,11.654,96.301,1.008,215.5h230.937V0.123H231.941z" />
<g>
	<polygon style="fill:#EFEFEF;" points="47.39,134.187 50.998,145.297 62.688,145.297 53.231,152.167 56.843,163.285 47.39,156.411    37.94,163.285 41.545,152.167 32.091,145.297 43.781,145.297  " />
	<polygon style="fill:#EFEFEF;" points="47.39,173.438 50.998,184.555 62.688,184.555 53.231,191.425 56.843,202.543 47.39,195.669    37.94,202.543 41.545,191.425 32.091,184.555 43.781,184.555  " />
	<polygon style="fill:#EFEFEF;" points="86.648,75.296 90.257,86.41 101.943,86.41 92.489,93.284 96.098,104.394 86.648,97.528    77.194,104.394 80.803,93.284 71.345,86.41 83.035,86.41  " />
	<polygon style="fill:#EFEFEF;" points="86.648,114.554 90.257,125.668 101.943,125.668 92.489,132.534 96.098,143.652    86.648,136.786 77.194,143.652 80.803,132.534 71.345,125.668 83.035,125.668  " />
	<polygon style="fill:#EFEFEF;" points="86.648,153.812 90.257,164.93 101.943,164.93 92.489,171.792 96.098,182.91 86.648,176.037    77.194,182.91 80.803,171.792 71.345,164.93 83.035,164.93  " />
	<path style="fill:#EFEFEF;" d="M17.585,182.91l-3.612-11.118l9.454-6.866H11.744l-0.262-0.811   c-1.283,3.968-2.442,7.984-3.511,12.045l0.165-0.123L17.585,182.91z" />
	<path style="fill:#EFEFEF;" d="M37.94,124.027l9.45-6.873l9.454,6.873l-3.612-11.118l9.454-6.873h-11.69l-3.609-11.11l-3.609,11.11   H39.47c-0.8,1.212-1.574,2.431-2.352,3.661l4.428,3.212L37.94,124.027z" />
	<path style="fill:#EFEFEF;" d="M86.648,58.27l9.45,6.866l-3.609-11.11l9.45-6.873h-6.75c-5.733,4.286-11.264,8.822-16.578,13.608   l-1.425,4.375L86.648,58.27z" />
	<path style="fill:#EFEFEF;" d="M116.452,45.511l9.454-6.873l9.45,6.873l-3.609-11.118l9.45-6.866h-11.686l-0.49-1.496   c-3.96,2.023-7.879,4.128-11.709,6.368l2.745,1.993L116.452,45.511z" />
	<polygon style="fill:#EFEFEF;" points="125.906,55.671 129.515,66.778 141.201,66.778 131.747,73.651 135.356,84.769    125.906,77.895 116.452,84.769 120.061,73.651 110.604,66.778 122.293,66.778  " />
	<polygon style="fill:#EFEFEF;" points="125.906,94.929 129.515,106.036 141.201,106.036 131.747,112.909 135.356,124.027    125.906,117.153 116.452,124.027 120.061,112.909 110.604,106.036 122.293,106.036  " />
	<polygon style="fill:#EFEFEF;" points="125.906,134.187 129.515,145.297 141.201,145.297 131.747,152.167 135.356,163.285    125.906,156.411 116.452,163.285 120.061,152.167 110.604,145.297 122.293,145.297  " />
	<polygon style="fill:#EFEFEF;" points="125.906,173.438 129.515,184.555 141.201,184.555 131.747,191.425 135.356,202.543    125.906,195.669 116.452,202.543 120.061,191.425 110.604,184.555 122.293,184.555  " />
	<polygon style="fill:#EFEFEF;" points="165.164,36.038 168.773,47.152 180.459,47.152 171.009,54.026 174.614,65.136    165.164,58.27 155.707,65.136 159.319,54.026 149.862,47.152 161.551,47.152  " />
	<polygon style="fill:#EFEFEF;" points="165.164,75.296 168.773,86.41 180.459,86.41 171.009,93.284 174.614,104.394    165.164,97.528 155.707,104.394 159.319,93.284 149.862,86.41 161.551,86.41  " />
	<polygon style="fill:#EFEFEF;" points="165.164,114.554 168.773,125.668 180.459,125.668 171.009,132.534 174.614,143.652    165.164,136.786 155.707,143.652 159.319,132.534 149.862,125.668 161.551,125.668  " />
	<polygon style="fill:#EFEFEF;" points="165.164,153.812 168.773,164.93 180.459,164.93 171.009,171.792 174.614,182.91    165.164,176.037 155.707,182.91 159.319,171.792 149.862,164.93 161.551,164.93  " />
	<polygon style="fill:#EFEFEF;" points="204.422,16.413 208.031,27.527 219.717,27.527 210.263,34.393 213.872,45.511    204.422,38.637 194.965,45.511 198.577,34.393 189.12,27.527 200.806,27.527  " />
	<polygon style="fill:#EFEFEF;" points="204.422,55.671 208.031,66.778 219.717,66.778 210.263,73.651 213.872,84.769    204.422,77.895 194.965,84.769 198.577,73.651 189.12,66.778 200.806,66.778  " />
	<polygon style="fill:#EFEFEF;" points="204.422,94.929 208.031,106.036 219.717,106.036 210.263,112.909 213.872,124.027    204.422,117.153 194.965,124.027 198.577,112.909 189.12,106.036 200.806,106.036  " />
	<polygon style="fill:#EFEFEF;" points="204.422,134.187 208.031,145.297 219.717,145.297 210.263,152.167 213.872,163.285    204.422,156.411 194.965,163.285 198.577,152.167 189.12,145.297 200.806,145.297  " />
	<polygon style="fill:#EFEFEF;" points="204.422,173.438 208.031,184.555 219.717,184.555 210.263,191.425 213.872,202.543    204.422,195.669 194.965,202.543 198.577,191.425 189.12,184.555 200.806,184.555  " />
</g>
<g>
</g>
<g>
</g>
<g>
</g>
<g>
</g>
<g>
</g>
<g>
</g>
<g>
</g>
<g>
</g>
<g>
</g>
<g>
</g>
<g>
</g>
<g>
</g>
<g>
</g>
<g>
</g>
<g>
</g>
</symbol></defs><use id="spotify-usage" xlink:href="#spotify" class="sprite-symbol-usage" /><use id="us-usage" xlink:href="#us" class="sprite-symbol-usage" /></svg>